<?xml version="1.0" encoding="UTF-8" standalone="no"?>
<!-- Created with Inkscape (http://www.inkscape.org/) -->

<svg
   xmlns:dc="http://purl.org/dc/elements/1.1/"
   xmlns:cc="http://creativecommons.org/ns#"
   xmlns:rdf="http://www.w3.org/1999/02/22-rdf-syntax-ns#"
   xmlns:svg="http://www.w3.org/2000/svg"
   xmlns="http://www.w3.org/2000/svg"
   xmlns:sodipodi="http://sodipodi.sourceforge.net/DTD/sodipodi-0.dtd"
   xmlns:inkscape="http://www.inkscape.org/namespaces/inkscape"
   width="361.22025"
   height="468.13492"
   viewBox="0 0 95.572858 123.8607"
   version="1.1"
   id="svg8"
   inkscape:version="0.92.2 (5c3e80d, 2017-08-06)"
   sodipodi:docname="floorplan.svg">
  <defs
     id="defs2" />
  <sodipodi:namedview
     id="base"
     pagecolor="#ffffff"
     bordercolor="#666666"
     borderopacity="1.0"
     inkscape:pageopacity="0.0"
     inkscape:pageshadow="2"
     inkscape:zoom="1.4"
     inkscape:cx="-89.17335"
     inkscape:cy="195.77339"
     inkscape:document-units="px"
     inkscape:current-layer="layer4"
     showgrid="false"
     inkscape:window-width="1920"
     inkscape:window-height="1001"
     inkscape:window-x="-9"
     inkscape:window-y="-9"
     inkscape:window-maximized="1"
     units="px"
     width="800in" />
  <metadata
     id="metadata5">
    <rdf:RDF>
      <cc:Work
         rdf:about="">
        <dc:format>image/svg+xml</dc:format>
        <dc:type
           rdf:resource="http://purl.org/dc/dcmitype/StillImage" />
        <dc:title />
      </cc:Work>
    </rdf:RDF>
  </metadata>
  <g
     inkscape:groupmode="layer"
     id="layer3"
     inkscape:label="page2"
     style="display:inline">
    <rect
       style="display:inline;fill:#acd8bf;fill-opacity:1;stroke:none;stroke-width:0.53791171;stroke-opacity:1"
       id="rect5382"
       width="96.905159"
       height="124.3841"
       x="-0.071627825"
       y="0.24751155" />
    <text
       xml:space="preserve"
       style="font-style:normal;font-weight:normal;font-size:21.66431046px;line-height:125%;font-family:sans-serif;letter-spacing:0px;word-spacing:0px;display:inline;fill:#000000;fill-opacity:1;stroke:none;stroke-width:0.54160774px;stroke-linecap:butt;stroke-linejoin:miter;stroke-opacity:1"
       x="47.818626"
       y="108.21248"
       id="text5401"
       transform="scale(1.0865291,0.92036192)"><tspan
         sodipodi:role="line"
         id="tspan5399"
         x="47.818626"
         y="108.21248"
         style="stroke-width:0.54160774px">:</tspan></text>
    <path
       id="switch.vardagsrum_play_stop-10"
       d="M 30.19867,79.71589 48.83264,79.576862 39.343272,70.358348 Z"
       inkscape:connector-curvature="0"
       style="display:inline;stroke-width:1.06019759"
       inkscape:label="PÅ / Pause"
       inkscape:transform-center-x="-408.83481"
       inkscape:transform-center-y="-59.713569" />
    <text
       xml:space="preserve"
       style="font-style:normal;font-variant:normal;font-weight:normal;font-stretch:normal;font-size:10.73306942px;line-height:125%;font-family:sans-serif;-inkscape-font-specification:'sans-serif, Normal';font-variant-ligatures:normal;font-variant-caps:normal;font-variant-numeric:normal;font-feature-settings:normal;text-align:start;letter-spacing:0px;word-spacing:0px;writing-mode:lr-tb;text-anchor:start;display:inline;fill:#000000;fill-opacity:1;stroke:none;stroke-width:0.67081684px;stroke-linecap:butt;stroke-linejoin:miter;stroke-opacity:1"
       x="32.250671"
       y="31.430967"
       id="text5473"
       transform="scale(0.82344708,1.2144071)"><tspan
         sodipodi:role="line"
         id="tspan5471"
         x="32.250671"
         y="31.430967"
         style="font-style:normal;font-variant:normal;font-weight:normal;font-stretch:normal;font-size:10.73306942px;font-family:sans-serif;-inkscape-font-specification:'sans-serif, Normal';font-variant-ligatures:normal;font-variant-caps:normal;font-variant-numeric:normal;font-feature-settings:normal;text-align:start;writing-mode:lr-tb;text-anchor:start;stroke-width:0.67081684px">Morgonljus</tspan></text>
    <text
       xml:space="preserve"
       style="font-style:normal;font-variant:normal;font-weight:normal;font-stretch:normal;font-size:9.25394249px;line-height:125%;font-family:sans-serif;-inkscape-font-specification:'sans-serif, Normal';font-variant-ligatures:normal;font-variant-caps:normal;font-variant-numeric:normal;font-feature-settings:normal;text-align:start;letter-spacing:0px;word-spacing:0px;writing-mode:lr-tb;text-anchor:start;display:inline;fill:#000000;fill-opacity:1;stroke:none;stroke-width:0.69404572px;stroke-linecap:butt;stroke-linejoin:miter;stroke-opacity:1"
       x="30.696674"
       y="45.214062"
       id="text5477"
       transform="scale(0.86561576,1.155247)"><tspan
         sodipodi:role="line"
         id="tspan5475"
         x="30.696674"
         y="45.214062"
         style="font-style:normal;font-variant:normal;font-weight:normal;font-stretch:normal;font-size:9.25394249px;line-height:122.00000286%;font-family:sans-serif;-inkscape-font-specification:'sans-serif, Normal';font-variant-ligatures:normal;font-variant-caps:normal;font-variant-numeric:normal;font-feature-settings:normal;text-align:start;writing-mode:lr-tb;text-anchor:start;stroke-width:0.69404572px">Enbart</tspan><tspan
         sodipodi:role="line"
         x="30.696674"
         y="56.78149"
         style="font-style:normal;font-variant:normal;font-weight:normal;font-stretch:normal;font-size:9.25394249px;line-height:122.00000286%;font-family:sans-serif;-inkscape-font-specification:'sans-serif, Normal';font-variant-ligatures:normal;font-variant-caps:normal;font-variant-numeric:normal;font-feature-settings:normal;text-align:start;writing-mode:lr-tb;text-anchor:start;stroke-width:0.69404572px"
         id="tspan5479">Arbetsdagar</tspan></text>
    <g
       id="input_boolean.alarmweekday"
       inkscape:label="#g3006">
      <path
         style="display:inline;stroke-width:1.16676199"
         inkscape:connector-curvature="0"
         d="m 13.493754,39.318777 a 8.6651134,7.6981503 0 0 1 -8.6650971,-7.698193 8.6651134,7.6981503 0 0 1 8.6650971,-7.698125 8.6651134,7.6981503 0 0 1 8.665098,7.698125 8.6651134,7.6981503 0 0 1 -8.665098,7.698193 m 0,-17.5958 A 11.14086,9.8976216 0 0 0 2.3528946,31.620584 11.14086,9.8976216 0 0 0 13.493754,41.51821 11.14086,9.8976216 0 0 0 24.634615,31.620584 11.14086,9.8976216 0 0 0 13.493754,21.722977 m 0.618929,4.398966 h -1.856786 v 6.598417 l 5.879894,3.134227 0.928371,-1.352676 -4.951479,-2.606374 v -5.773594 m -5.71895,-5.069782 -1.5844938,-1.682589 -5.6942016,4.23395 1.5968455,1.682589 5.6818499,-4.23395 m 17.478739,2.562387 -5.694202,-4.244976 -1.596845,1.682589 5.694203,4.244976 z"
         id="path5384" />
      <path
         inkscape:label="Morgonljus PÅ / AV"
         style="display:inline;stroke-width:0.68852925"
         inkscape:connector-curvature="0"
         d="m 88.805319,30.451368 -1.051585,0.947816 c 1.254644,0.686379 2.095932,1.921821 2.095932,3.340308 a 4.351444,3.9220571 0 0 1 -4.351444,3.922058 4.351444,3.9220571 0 0 1 -4.351444,-3.922058 c 0,-1.418487 0.841286,-2.653929 2.088693,-3.34683 l -1.044346,-0.941294 c -1.508495,0.941294 -2.494843,2.510117 -2.494843,4.288124 a 5.8019254,5.2294096 0 0 0 5.80194,5.229393 5.8019254,5.2294096 0 0 0 5.80194,-5.229393 c 0,-1.778007 -0.986351,-3.34683 -2.494843,-4.288124 m -2.581871,-1.594986 h -1.45046 v 6.536778 h 1.45046"
         id="group.alarmclock" />
    </g>
    <path
       id="switch.nad_audio_power-6-8"
       d="m 89.43938,47.784019 -1.102995,0.915578 c 1.315977,0.663032 2.198368,1.856452 2.198368,3.226692 a 4.5640551,3.7886539 0 0 1 -4.564084,3.788654 4.5640551,3.7886539 0 0 1 -4.564041,-3.788654 c 0,-1.37024 0.882391,-2.56366 2.190747,-3.232993 l -1.095373,-0.909277 c -1.582199,0.909277 -2.616732,2.424739 -2.616732,4.14227 a 6.0854068,5.0515386 0 0 0 6.085399,5.051522 6.0854068,5.0515386 0 0 0 6.085445,-5.051522 c 0,-1.717531 -1.034535,-3.232993 -2.616734,-4.14227 m -2.708042,-1.540735 h -1.521324 v 6.314439 h 1.521324"
       inkscape:connector-curvature="0"
       style="display:inline;stroke-width:0.69305331"
       inkscape:label="Stereo PÅ" />
    <text
       xml:space="preserve"
       style="font-style:normal;font-weight:normal;font-size:25.3002491px;line-height:125%;font-family:sans-serif;letter-spacing:0px;word-spacing:0px;fill:#000000;fill-opacity:1;stroke:none;stroke-width:0.63250625px;stroke-linecap:butt;stroke-linejoin:miter;stroke-opacity:1"
       x="29.425938"
       y="90.705322"
       id="input_number.alarmhour"
       transform="scale(0.8705691,1.1486739)"
       inkscape:label="#text1756"><tspan
         sodipodi:role="line"
         id="tspan1754"
         x="29.425938"
         y="90.705322"
         style="stroke-width:0.63250625px">00</tspan></text>
    <text
       xml:space="preserve"
       style="font-style:normal;font-weight:normal;font-size:25.3002491px;line-height:125%;font-family:sans-serif;letter-spacing:0px;word-spacing:0px;display:inline;fill:#000000;fill-opacity:1;stroke:none;stroke-width:0.63250625px;stroke-linecap:butt;stroke-linejoin:miter;stroke-opacity:1"
       x="69.987053"
       y="90.926407"
       id="input_number.alarmminutes"
       transform="scale(0.8705691,1.1486739)"
       inkscape:label="#text1756-0"><tspan
         sodipodi:role="line"
         id="tspan1754-0"
         x="69.987053"
         y="90.926407"
         style="stroke-width:0.63250625px">00</tspan></text>
    <path
       id="switch.vardagsrum_play_stop-10-9"
       d="m 65.333314,80.347505 18.63397,-0.139028 -9.489368,-9.218514 z"
       inkscape:connector-curvature="0"
       style="display:inline;stroke-width:1.06019759"
       inkscape:label="PÅ / Pause"
       inkscape:transform-center-x="-408.83481"
       inkscape:transform-center-y="-59.713569" />
    <path
       id="switch.vardagsrum_play_stop-10-9-2"
       d="m 65.144326,107.84265 18.63397,0.13903 -9.489368,9.21851 z"
       inkscape:connector-curvature="0"
       style="display:inline;stroke-width:1.06019759"
       inkscape:label="PÅ / Pause"
       inkscape:transform-center-x="-408.83481"
       inkscape:transform-center-y="59.713569" />
    <path
       id="switch.vardagsrum_play_stop-10-9-2-5"
       d="m 29.425575,107.65365 18.63397,0.13903 -9.489368,9.21852 z"
       inkscape:connector-curvature="0"
       style="display:inline;stroke-width:1.06019759"
       inkscape:label="PÅ / Pause"
       inkscape:transform-center-x="-408.83481"
       inkscape:transform-center-y="59.713569" />
  </g>
  <g
     inkscape:label="page1"
     inkscape:groupmode="layer"
     id="layer1"
     transform="translate(-11.460539,245.09489)"
     style="display:inline">
    <rect
       style="fill:#bbd5df;fill-opacity:1;stroke:none;stroke-width:0.48535106;stroke-opacity:1"
       id="rect5323"
       width="96.701599"
       height="125.58166"
       x="11.511175"
       y="-245.27373" />
    <path
       id="path4537"
       d="m 105.78268,-209.71225 a 0.86558889,0.83656562 0 0 1 0.86558,0.83657 v 5.01939 a 0.86558889,0.83656562 0 0 1 -0.86558,0.83656 h -6.924723 a 0.86558889,0.83656562 0 0 1 -0.865578,-0.83656 v -5.01939 c 0,-0.35555 0.229382,-0.66088 0.553966,-0.78219 l 5.379635,-2.1458 0.32893,0.76546 -3.30655,1.32596 h 4.83432 m 0,0.83657 h -6.924723 v 1.67313 h 5.193533 v -0.83657 h 0.86559 v 0.83657 h 0.8656 v -1.67313 m -5.62634,2.5097 a 1.2983833,1.2548484 0 0 0 -1.298383,1.25485 1.2983833,1.2548484 0 0 0 1.298383,1.25484 1.2983833,1.2548484 0 0 0 1.29838,-1.25484 1.2983833,1.2548484 0 0 0 -1.29838,-1.25485 z"
       inkscape:connector-curvature="0"
       style="stroke-width:0.42547673" />
    <path
       id="path4548"
       d="m 102.36666,-181.71717 3.67875,2.5097 v -5.0194 m -3.89515,5.0194 v -5.0194 l -3.678751,2.5097 z"
       inkscape:connector-curvature="0"
       style="stroke-width:0.42547673"
       inkscape:label="Föregående Låt" />
    <path
       id="path4559"
       d="m 91.271685,-206.97549 c -1.384948,-0.79474 -3.700397,-0.87838 -5.020421,-0.48102 -0.216395,0.0628 -0.432789,-0.0628 -0.497713,-0.25097 -0.06494,-0.20914 0.06494,-0.41828 0.259677,-0.48103 1.536419,-0.43919 4.068262,-0.35554 5.669605,0.56469 0.194753,0.1045 0.259676,0.35553 0.151471,0.54377 -0.108287,0.14639 -0.367866,0.20914 -0.562636,0.1045 m -0.04335,1.17117 c -0.108124,0.14639 -0.302943,0.20915 -0.45443,0.10466 -1.168537,-0.69015 -2.942992,-0.89929 -4.306298,-0.48101 -0.173129,0.0419 -0.367882,-0.0419 -0.411165,-0.20914 -0.04335,-0.16732 0.04335,-0.35555 0.216411,-0.39738 1.579685,-0.46011 3.527268,-0.23005 4.868934,0.56469 0.129879,0.0628 0.194753,0.27187 0.08653,0.41827 m -0.519353,1.15028 c -0.08653,0.12552 -0.238036,0.16732 -0.367882,0.0836 -1.017066,-0.6065 -2.293808,-0.732 -3.808586,-0.39737 -0.151471,0.0419 -0.281317,-0.0628 -0.3246,-0.18822 -0.04335,-0.14639 0.06494,-0.27188 0.194754,-0.31372 1.644624,-0.35554 3.072854,-0.20913 4.198109,0.46011 0.151471,0.0628 0.173128,0.23006 0.108287,0.35555 m -1.990849,-6.0442 a 4.3279444,4.182828 0 0 0 -4.327956,4.18282 4.3279444,4.182828 0 0 0 4.327956,4.18282 4.3279444,4.182828 0 0 0 4.327939,-4.18282 4.3279444,4.182828 0 0 0 -4.327939,-4.18282 z"
       inkscape:connector-curvature="0"
       style="stroke-width:0.42547673" />
    <path
       id="path4570"
       d="m 105.53537,-192.05474 h -5.19354 v -5.01939 h 5.19354 z"
       inkscape:connector-curvature="0"
       style="stroke-width:0.42547673" />
    <path
       id="switch.nad_audio_tv"
       d="m 38.992584,-162.25135 h -8.013027 v -5.86079 h 8.013027 m 0,-0.9768 h -8.013027 c -0.555907,0 -1.001632,0.43467 -1.001632,0.9768 v 5.86079 a 1.0016268,0.97679992 0 0 0 1.001632,0.9768 h 2.003267 v 0.9768 h 4.006493 v -0.9768 h 2.003267 a 1.0016268,0.97679992 0 0 0 1.001614,-0.9768 v -5.86079 c 0,-0.54213 -0.450723,-0.9768 -1.001614,-0.9768 z"
       inkscape:connector-curvature="0"
       style="stroke-width:0.49456769"
       inkscape:label="Välj TV Ljud" />
    <path
       id="path4592"
       d="m 37.307407,-183.26529 v 1.0061 c 1.447341,0.42002 2.504073,1.72892 2.504073,3.27716 0,1.54823 -1.056732,2.85227 -2.504073,3.27228 v 1.01099 c 2.003248,-0.44443 3.505688,-2.19292 3.505688,-4.28327 0,-2.09034 -1.50244,-3.83881 -3.505688,-4.28326 m 1.252037,4.28326 c 0,-0.86447 -0.500825,-1.60684 -1.252037,-1.96825 v 3.92186 c 0.751212,-0.34678 1.252037,-1.09403 1.252037,-1.95361 m -6.760991,-1.4652 v 2.9304 h 2.003267 l 2.504054,2.44201 v -7.81439 l -2.504054,2.44198 z"
       inkscape:connector-curvature="0"
       style="stroke-width:0.49456769" />
    <path
       id="path4603"
       d="m 17.722023,-180.76886 v 2.9304 h 2.003267 l 2.504054,2.44198 v -7.81439 l -2.504054,2.44201 m 4.757724,1.4652 c 0,-0.86449 -0.500807,-1.60684 -1.252037,-1.96828 v 3.92188 c 0.75123,-0.34677 1.252037,-1.09403 1.252037,-1.9536 z"
       inkscape:connector-curvature="0"
       style="stroke-width:0.49456769" />
    <path
       id="switch.vardagsrum_play_stop"
       d="m 86.64697,-197.49242 v 5.85596 l 4.760744,-2.92797 z"
       inkscape:connector-curvature="0"
       style="stroke-width:0.42547673"
       inkscape:label="PÅ / Pause" />
    <path
       id="switch.nad_audio_aux"
       d="m 24.813734,-169.029 v 6.10501 a 1.7528469,1.7093999 0 0 1 -1.752843,1.7094 1.7528469,1.7093999 0 0 1 -1.752844,-1.7094 1.7528469,1.7093999 0 0 1 1.752844,-1.7094 c 0.270448,0 0.52585,0.0585 0.75123,0.16612 v -2.86691 l -5.008147,1.0403 v 4.34677 a 1.7528469,1.7093999 0 0 1 -1.752843,1.7094 1.7528469,1.7093999 0 0 1 -1.752844,-1.7094 1.7528469,1.7093999 0 0 1 1.752844,-1.7094 c 0.270448,0 0.525848,0.0587 0.751229,0.16612 v -4.07325 z"
       inkscape:connector-curvature="0"
       style="stroke-width:0.49456769"
       inkscape:label="Välj musikspelare" />
    <path
       id="switch.vardagsrum_next_prev"
       d="m 88.300869,-182.01595 -3.678755,2.5097 v -5.01939 m 3.89515,5.01939 v -5.01939 l 3.678755,2.50969 z"
       inkscape:connector-curvature="0"
       style="stroke-width:0.42547673"
       inkscape:label="Nästa låt" />
    <path
       id="switch.nad_audio_power"
       d="m 38.071357,-190.49126 -1.59483,-1.69973 c 1.64005,-1.73591 2.646736,-4.15897 2.646736,-6.82311 0,-2.6762 -1.006686,-5.08719 -2.646736,-6.82312 l 1.59483,-1.69973 c 2.047293,2.18195 3.314094,5.19569 3.314094,8.52285 0,3.32716 -1.266801,6.34092 -3.314094,8.52284 m -3.200979,-3.41154 -1.59483,-1.69973 c 0.814394,-0.86797 1.323378,-2.07348 1.323378,-3.41157 0,-1.3381 -0.508984,-2.54361 -1.323378,-3.41155 l 1.59483,-1.69975 c 1.232901,1.31398 1.990736,3.12223 1.990736,5.1113 0,1.98908 -0.757835,3.79731 -1.990736,5.1113 m -14.975603,-15.96075 h 9.048692 a 2.2621774,2.4109902 0 0 1 2.262188,2.41099 v 16.87692 a 2.2621774,2.4109902 0 0 1 -2.262188,2.411 h -9.048692 a 2.2621774,2.4109902 0 0 1 -2.262188,-2.411 v -16.87692 a 2.2621774,2.4109902 0 0 1 2.262188,-2.41099 m 4.524337,2.41099 a 2.2621774,2.4109902 0 0 0 -2.262188,2.41098 2.2621774,2.4109902 0 0 0 2.262188,2.41099 2.2621774,2.4109902 0 0 0 2.262205,-2.41099 2.2621774,2.4109902 0 0 0 -2.262205,-2.41098 m 0,7.23297 a 4.5243548,4.8219805 0 0 0 -4.524337,4.82197 4.5243548,4.8219805 0 0 0 4.524337,4.82198 4.5243548,4.8219805 0 0 0 4.524355,-4.82198 4.5243548,4.8219805 0 0 0 -4.524355,-4.82197 m 0,2.41099 a 2.2621774,2.4109902 0 0 1 2.262205,2.41098 2.2621774,2.4109902 0 0 1 -2.262205,2.41099 2.2621774,2.4109902 0 0 1 -2.262188,-2.41099 2.2621774,2.4109902 0 0 1 2.262188,-2.41098 z"
       inkscape:connector-curvature="0"
       style="stroke-width:1.16769934"
       inkscape:label="Stereo På" />
    <path
       id="media_player.bluesound_vardagsrum"
       d="m 77.372792,-210.5787 v 16.8475 a 3.9065411,4.7172986 0 0 1 -3.906535,4.7173 3.9065411,4.7172986 0 0 1 -3.906535,-4.7173 3.9065411,4.7172986 0 0 1 3.906535,-4.71729 c 0.602744,0 1.171955,0.16174 1.674248,0.45825 v -7.91157 l -11.161566,2.87081 v 11.99542 a 3.9065411,4.7172986 0 0 1 -3.906535,4.71729 3.9065411,4.7172986 0 0 1 -3.906535,-4.71729 3.9065411,4.7172986 0 0 1 3.906535,-4.7173 c 0.602745,0 1.171956,0.16173 1.674248,0.45826 v -11.24065 z"
       inkscape:connector-curvature="0"
       style="stroke-width:1.22652042"
       inkscape:label="Mediespelare Vardagsrum" />
    <path
       id="path4592-8"
       d="m 76.035788,-185.25944 v 0.86166 c 1.250767,0.35974 2.163978,1.48073 2.163978,2.80669 0,1.32595 -0.913211,2.44276 -2.163978,2.80249 v 0.86584 c 1.731172,-0.38064 3.029556,-1.87809 3.029556,-3.66833 0,-1.79026 -1.298384,-3.28771 -3.029556,-3.66835 m 1.081989,3.66835 c 0,-0.74036 -0.432805,-1.37616 -1.081989,-1.68568 v 3.3588 c 0.649184,-0.29697 1.081989,-0.93696 1.081989,-1.67312 m -5.842733,-1.25485 v 2.50969 h 1.731188 l 2.163962,2.09141 v -6.69252 l -2.163962,2.09142 z"
       inkscape:connector-curvature="0"
       style="stroke-width:0.42547673" />
    <path
       id="path4603-8"
       d="m 56.946453,-183.42018 v 2.5097 h 1.731189 l 2.163961,2.0914 v -6.69252 l -2.163961,2.09142 m 4.111545,1.25485 c 0,-0.74037 -0.432789,-1.37617 -1.081989,-1.68569 v 3.35882 c 0.6492,-0.29698 1.081989,-0.93696 1.081989,-1.67313 z"
       inkscape:connector-curvature="0"
       style="stroke-width:0.42547673" />
    <path
       id="path4537-7"
       d="m 102.5831,-154.73794 a 0.86558889,0.83656562 0 0 1 0.86558,0.83657 v 5.0194 a 0.86558889,0.83656562 0 0 1 -0.86558,0.83655 h -6.92472 a 0.86558889,0.83656562 0 0 1 -0.865578,-0.83655 v -5.0194 c 0,-0.35554 0.229383,-0.6609 0.553966,-0.78218 l 5.379632,-2.14581 0.32894,0.76546 -3.306559,1.32596 h 4.834319 m 0,0.83657 h -6.92472 v 1.67313 h 5.19353 v -0.83657 h 0.8656 v 0.83657 h 0.86559 v -1.67313 m -5.626337,2.5097 a 1.2983833,1.2548484 0 0 0 -1.298383,1.25485 1.2983833,1.2548484 0 0 0 1.298383,1.25485 1.2983833,1.2548484 0 0 0 1.298384,-1.25485 1.2983833,1.2548484 0 0 0 -1.298384,-1.25485 z"
       inkscape:connector-curvature="0"
       style="stroke-width:0.42547673" />
    <path
       id="path4548-3"
       d="m 99.167082,-126.74287 3.678758,2.50969 v -5.01939 m -3.895152,5.01939 v -5.01939 l -3.678756,2.5097 z"
       inkscape:connector-curvature="0"
       style="stroke-width:0.42547673" />
    <path
       id="path4559-4"
       d="m 88.072108,-152.00117 c -1.384947,-0.79474 -3.700396,-0.87839 -5.020421,-0.48103 -0.216394,0.0628 -0.432789,-0.0628 -0.497712,-0.25097 -0.06494,-0.20914 0.06494,-0.41828 0.259677,-0.48102 1.536419,-0.4392 4.068262,-0.35555 5.669604,0.56468 0.194754,0.1045 0.259677,0.35553 0.151471,0.54377 -0.108287,0.1464 -0.367865,0.20914 -0.562635,0.1045 m -0.04335,1.17117 c -0.108123,0.1464 -0.302942,0.20916 -0.45443,0.10466 -1.168537,-0.69015 -2.942991,-0.89929 -4.306298,-0.48101 -0.173128,0.0419 -0.367882,-0.0419 -0.411164,-0.20914 -0.04335,-0.16732 0.04335,-0.35554 0.216411,-0.39738 1.579685,-0.4601 3.527268,-0.23005 4.868933,0.56469 0.12988,0.0628 0.194754,0.27187 0.08653,0.41828 m -0.519353,1.15027 c -0.08653,0.12552 -0.238036,0.16732 -0.367882,0.0836 -1.017066,-0.6065 -2.293808,-0.73199 -3.808586,-0.39736 -0.151471,0.0419 -0.281318,-0.0628 -0.3246,-0.18823 -0.04335,-0.14639 0.06494,-0.27188 0.194753,-0.31371 1.644625,-0.35555 3.072855,-0.20914 4.198109,0.46011 0.151471,0.0628 0.173129,0.23005 0.108287,0.35554 m -1.990849,-6.0442 a 4.3279444,4.182828 0 0 0 -4.327955,4.18282 4.3279444,4.182828 0 0 0 4.327955,4.18283 4.3279444,4.182828 0 0 0 4.327939,-4.18283 4.3279444,4.182828 0 0 0 -4.327939,-4.18282 z"
       inkscape:connector-curvature="0"
       style="stroke-width:0.42547673" />
    <path
       id="path4570-8"
       d="m 102.33579,-137.08042 h -5.193532 v -5.0194 h 5.193532 z"
       inkscape:connector-curvature="0"
       style="stroke-width:0.42547673" />
    <path
       id="switch.kontoret_play_stop"
       d="m 83.447394,-142.51811 v 5.85597 l 4.760744,-2.92798 z"
       inkscape:connector-curvature="0"
       style="stroke-width:0.42547673"
       inkscape:label="#path4614-4" />
    <path
       id="path4548-0-4"
       d="m 85.101293,-127.04163 -3.678756,2.50969 v -5.01939 m 3.89515,5.01939 v -5.01939 l 3.678756,2.5097 z"
       inkscape:connector-curvature="0"
       style="stroke-width:0.42547673" />
    <path
       id="media_player.bluesound_kontoret"
       d="m 74.173215,-155.60439 v 16.84751 a 3.9065411,4.7172986 0 0 1 -3.906535,4.71729 3.9065411,4.7172986 0 0 1 -3.906534,-4.71729 3.9065411,4.7172986 0 0 1 3.906534,-4.7173 c 0.602745,0 1.171956,0.16173 1.674248,0.45826 v -7.91158 l -11.161565,2.87081 v 11.99542 a 3.9065411,4.7172986 0 0 1 -3.906535,4.7173 3.9065411,4.7172986 0 0 1 -3.906535,-4.7173 3.9065411,4.7172986 0 0 1 3.906535,-4.7173 c 0.602744,0 1.171955,0.16173 1.674248,0.45826 v -11.24064 z"
       inkscape:connector-curvature="0"
       style="stroke-width:1.22652042"
       inkscape:label="Mediespelare Kontoret" />
    <path
       id="path4592-8-0"
       d="m 72.836212,-130.28513 v 0.86166 c 1.250766,0.35972 2.163977,1.48073 2.163977,2.80669 0,1.32596 -0.913211,2.44276 -2.163977,2.8025 v 0.86583 c 1.731172,-0.38064 3.029555,-1.87809 3.029555,-3.66833 0,-1.79026 -1.298383,-3.28771 -3.029555,-3.66835 m 1.081989,3.66835 c 0,-0.74037 -0.432806,-1.37615 -1.081989,-1.68568 v 3.35881 c 0.649183,-0.29698 1.081989,-0.93696 1.081989,-1.67313 m -5.842734,-1.25485 v 2.5097 h 1.731189 l 2.163961,2.0914 v -6.69252 l -2.163961,2.09142 z"
       inkscape:connector-curvature="0"
       style="stroke-width:0.42547673" />
    <path
       id="path4603-8-8"
       d="m 53.746877,-128.44588 v 2.5097 h 1.731189 l 2.163961,2.09142 v -6.69254 l -2.163961,2.09142 m 4.111544,1.25485 c 0,-0.74037 -0.432789,-1.37615 -1.081989,-1.68568 v 3.35881 c 0.6492,-0.29698 1.081989,-0.93696 1.081989,-1.67313 z"
       inkscape:connector-curvature="0"
       style="stroke-width:0.42547673" />
    <path
       id="script.join_vardagsrum"
       d="m 86.909737,-170.47948 h 2.596766 v 3.34626 h 2.094736 l -3.393119,3.27934 -3.393103,-3.27934 h 2.09472 z"
       inkscape:connector-curvature="0"
       style="stroke-width:0.42547679"
       inkscape:label="Multiroom från Vardagsrum" />
    <path
       id="script.join_kontoret"
       d="m 78.755891,-163.78695 h -2.596767 v -3.34627 h -2.094719 l 3.393103,-3.27933 3.393103,3.27933 h -2.09472 z"
       inkscape:connector-curvature="0"
       style="stroke-width:0.42547679"
       inkscape:label="Multiroom från Kontoret" />
    <path
       id="script.end_multiroom"
       d="m 69.593021,-169.70149 -0.627542,0.60651 c 0.748719,0.4392 1.250766,1.22975 1.250766,2.13743 a 2.5967667,2.5096969 0 0 1 -2.596767,2.5097 2.5967667,2.5096969 0 0 1 -2.596766,-2.5097 c 0,-0.90768 0.502047,-1.69823 1.246448,-2.14161 l -0.623224,-0.60233 c -0.900207,0.60233 -1.488819,1.60621 -1.488819,2.74394 a 3.4623556,3.3462625 0 0 0 3.462361,3.34626 3.4623556,3.3462625 0 0 0 3.462361,-3.34626 c 0,-1.13773 -0.588611,-2.14161 -1.488818,-2.74394 m -1.540754,-1.02062 h -0.865578 v 4.18284 h 0.865578"
       inkscape:connector-curvature="0"
       style="stroke-width:0.42547673"
       inkscape:label="Avsluta Multiroom" />
    <rect
       style="fill:none;stroke:none;stroke-width:0.26458335;stroke-opacity:1"
       id="rect1633"
       width="66.901787"
       height="37.419643"
       x="-10.651068"
       y="-160.54372" />
    <rect
       style="fill:none;stroke:none;stroke-width:0.26458335;stroke-opacity:1"
       id="rect1635"
       width="92.415176"
       height="48.75893"
       x="-27.848986"
       y="-168.29222" />
    <rect
       style="fill:none;stroke:none;stroke-width:0.26458335;stroke-opacity:1"
       id="rect1637"
       width="100.1637"
       height="40.254463"
       x="0.68821698"
       y="-152.22824" />
    <rect
       style="fill:none;stroke:none;stroke-width:0.26458335;stroke-opacity:1"
       id="rect1639"
       width="116.98363"
       height="37.041672"
       x="0.68821698"
       y="-152.22824" />
    <text
       xml:space="preserve"
       style="font-style:normal;font-weight:normal;font-size:10.58333397px;line-height:125%;font-family:sans-serif;letter-spacing:0px;word-spacing:0px;fill:#000000;fill-opacity:1;stroke:none;stroke-width:0.26458335px;stroke-linecap:butt;stroke-linejoin:miter;stroke-opacity:1"
       x="57.384647"
       y="-218.56305"
       id="text2026"><tspan
         sodipodi:role="line"
         id="tspan2024"
         x="57.384647"
         y="-218.56305"
         style="stroke-width:0.26458335px">Spelare</tspan></text>
    <text
       xml:space="preserve"
       style="font-style:normal;font-weight:normal;font-size:10.58333397px;line-height:125%;font-family:sans-serif;letter-spacing:0px;word-spacing:0px;fill:#000000;fill-opacity:1;stroke:none;stroke-width:0.26458335px;stroke-linecap:butt;stroke-linejoin:miter;stroke-opacity:1"
       x="14.295361"
       y="-218.56306"
       id="text2030"><tspan
         sodipodi:role="line"
         id="tspan2028"
         x="14.295361"
         y="-218.56306"
         style="stroke-width:0.26458335px">Stereo</tspan></text>
    <path
       style="fill:none;fill-rule:evenodd;stroke:#5e8598;stroke-width:0.26458335px;stroke-linecap:butt;stroke-linejoin:miter;stroke-opacity:1"
       d="m 11.271551,-215.91723 96.194939,0.18899"
       id="path2032"
       inkscape:connector-curvature="0" />
    <path
       style="fill:none;fill-rule:evenodd;stroke:#7da0af;stroke-width:0.26484466px;stroke-linecap:butt;stroke-linejoin:miter;stroke-opacity:1"
       d="m 48.880182,-215.53925 0.377976,95.81696"
       id="path2049"
       inkscape:connector-curvature="0" />
    <path
       id="switch.tv_power"
       d="M 40.886114,-137.44124 H 19.181818 v -13.68839 h 21.704296 m 0,-2.28141 H 19.181818 c -1.505745,0 -2.713047,1.01521 -2.713047,2.28141 v 13.68839 a 2.7130328,2.2814021 0 0 0 2.713047,2.2814 h 5.426102 v 2.2814 h 10.852092 v -2.2814 h 5.426102 a 2.7130328,2.2814021 0 0 0 2.712998,-2.2814 v -13.68839 c 0,-1.2662 -1.22084,-2.28141 -2.712998,-2.28141 z"
       inkscape:connector-curvature="0"
       style="display:inline;stroke-width:1.24393702"
       inkscape:label="TV På" />
  </g>
  <g
     inkscape:groupmode="layer"
     id="layer2"
     inkscape:label="page0"
     style="display:inline">
    <rect
       style="fill:#0a5761;fill-opacity:1;fill-rule:evenodd;stroke:#ffffff;stroke-width:0.26458335;stroke-opacity:1"
       id="rect2116"
       width="98.292702"
       height="110.78482"
       x="-1.7197858"
       y="13.453856" />
    <path
       style="display:inline;fill:none;fill-rule:evenodd;stroke:#030303;stroke-width:0.95944798;stroke-linecap:butt;stroke-linejoin:miter;stroke-miterlimit:4;stroke-dasharray:none;stroke-opacity:1"
       d="m 11.583292,60.282322 29.987759,0.289901 0.31401,11.451041 -6.594167,9.276793 -23.393593,-0.434851 v 0"
       id="path4629"
       inkscape:connector-curvature="0"
       sodipodi:nodetypes="cccccc" />
    <path
       style="display:inline;fill:none;fill-rule:evenodd;stroke:#030303;stroke-width:0.95944798;stroke-linecap:butt;stroke-linejoin:miter;stroke-miterlimit:4;stroke-dasharray:none;stroke-opacity:1"
       d="M 67.319703,89.272302 H 41.728056 l 0.157005,25.366228"
       id="path4631"
       inkscape:connector-curvature="0"
       sodipodi:nodetypes="ccc" />
    <path
       style="display:inline;fill:none;fill-rule:evenodd;stroke:#030303;stroke-width:0.95944798;stroke-linecap:butt;stroke-linejoin:miter;stroke-miterlimit:4;stroke-dasharray:none;stroke-opacity:1"
       d="m 12.52532,97.824347 29.202736,0.144946"
       id="path4633"
       inkscape:connector-curvature="0" />
    <path
       style="display:inline;fill:none;fill-rule:evenodd;stroke:#030303;stroke-width:0.95944798;stroke-linecap:butt;stroke-linejoin:miter;stroke-miterlimit:4;stroke-dasharray:none;stroke-opacity:1"
       d="m 35.290894,81.300057 6.437162,7.972245"
       id="path4635"
       inkscape:connector-curvature="0"
       sodipodi:nodetypes="cc" />
    <path
       style="display:inline;fill:none;fill-rule:evenodd;stroke:#030303;stroke-width:0.95944798;stroke-linecap:butt;stroke-linejoin:miter;stroke-miterlimit:4;stroke-dasharray:none;stroke-opacity:1"
       d="m 59.312502,80.720261 -5.652146,8.40709"
       id="path4637"
       inkscape:connector-curvature="0"
       sodipodi:nodetypes="cc" />
    <path
       style="display:inline;fill:none;fill-rule:evenodd;stroke:#030303;stroke-width:0.95944798;stroke-linecap:butt;stroke-linejoin:miter;stroke-miterlimit:4;stroke-dasharray:none;stroke-opacity:1"
       d="m 11.897307,16.942314 v 6.08789 l -6.4371626,1.594455 0.084551,13.599759 6.3982396,1.83252 -0.04564,40.808268 -6.1675891,2.100414 0.044433,12.684481 6.7511701,2.174246 V 114.92844 L 67.476711,114.49359 67.3197,80.865206 59.312492,80.720261 54.445379,73.617716 54.759378,16.942314 Z"
       id="path4585"
       inkscape:connector-curvature="0"
       sodipodi:nodetypes="cccccccccccccccc" />
    <path
       style="display:inline;fill:none;fill-rule:evenodd;stroke:#030303;stroke-width:0.95944798;stroke-linecap:butt;stroke-linejoin:miter;stroke-miterlimit:4;stroke-dasharray:none;stroke-opacity:1"
       d="m 41.258822,17.082957 v 15.944488 l 13.188331,0.144949"
       id="path4589"
       inkscape:connector-curvature="0"
       sodipodi:nodetypes="ccc" />
    <path
       style="display:inline;fill:none;fill-rule:evenodd;stroke:#030303;stroke-width:0.95944798;stroke-linecap:butt;stroke-linejoin:miter;stroke-miterlimit:4;stroke-dasharray:none;stroke-opacity:1"
       d="m 31.13476,114.95424 2.512064,6.81265 18.567492,0.15212 2.628042,-7.10972"
       id="path4587"
       inkscape:connector-curvature="0"
       sodipodi:nodetypes="cccc" />
    <path
       style="fill:none;fill-rule:evenodd;stroke:#6aa3a1;stroke-width:0.31981596px;stroke-linecap:butt;stroke-linejoin:miter;stroke-opacity:1"
       d="m 11.98656,41.890612 v 7.95532"
       id="path4718"
       inkscape:connector-curvature="0" />
    <g
       id="g2983"
       style="fill:#b6d2ec;fill-opacity:1;stroke:#a6d1e5;stroke-opacity:1">
      <path
         sodipodi:nodetypes="cc"
         inkscape:connector-curvature="0"
         id="path4706"
         d="M 6.6956673,24.286841 10.662025,23.364903"
         style="fill:#b6d2ec;fill-opacity:1;fill-rule:evenodd;stroke:#a6d1e5;stroke-width:0.31981596px;stroke-linecap:butt;stroke-linejoin:miter;stroke-opacity:1" />
      <path
         sodipodi:nodetypes="cc"
         inkscape:connector-curvature="0"
         id="path4710"
         d="m 5.5661368,26.369937 0.010693,9.791531"
         style="fill:#b6d2ec;fill-opacity:1;fill-rule:evenodd;stroke:#a6d1e5;stroke-width:0.31981596px;stroke-linecap:butt;stroke-linejoin:miter;stroke-opacity:1" />
      <path
         sodipodi:nodetypes="cc"
         inkscape:connector-curvature="0"
         id="path4716"
         d="m 6.7448957,38.562709 3.7775603,0.997922"
         style="fill:#b6d2ec;fill-opacity:1;fill-rule:evenodd;stroke:#a6d1e5;stroke-width:0.31981596px;stroke-linecap:butt;stroke-linejoin:miter;stroke-opacity:1" />
      <path
         sodipodi:nodetypes="cc"
         inkscape:connector-curvature="0"
         id="path4720"
         d="m 11.98656,70.514166 -0.109094,7.331375"
         style="fill:#b6d2ec;fill-opacity:1;fill-rule:evenodd;stroke:#a6d1e5;stroke-width:0.31981596px;stroke-linecap:butt;stroke-linejoin:miter;stroke-opacity:1" />
      <path
         sodipodi:nodetypes="cc"
         inkscape:connector-curvature="0"
         id="path4722"
         d="M 10.652824,81.413596 6.899875,82.502418"
         style="fill:#b6d2ec;fill-opacity:1;fill-rule:evenodd;stroke:#a6d1e5;stroke-width:0.31981596px;stroke-linecap:butt;stroke-linejoin:miter;stroke-opacity:1" />
      <path
         sodipodi:nodetypes="cc"
         inkscape:connector-curvature="0"
         id="path4724"
         d="m 5.735095,84.864941 0.039049,8.913326"
         style="fill:#b6d2ec;fill-opacity:1;fill-rule:evenodd;stroke:#a6d1e5;stroke-width:0.31981596px;stroke-linecap:butt;stroke-linejoin:miter;stroke-opacity:1" />
      <path
         sodipodi:nodetypes="cc"
         inkscape:connector-curvature="0"
         id="path4726"
         d="M 6.9630837,95.978715 10.955488,97.29843"
         style="fill:#b6d2ec;fill-opacity:1;fill-rule:evenodd;stroke:#a6d1e5;stroke-width:0.31981596px;stroke-linecap:butt;stroke-linejoin:miter;stroke-opacity:1" />
      <path
         sodipodi:nodetypes="cc"
         inkscape:connector-curvature="0"
         id="path4728"
         d="M 22.377516,114.89239 29.8776,114.73317"
         style="fill:#b6d2ec;fill-opacity:1;fill-rule:evenodd;stroke:#a6d1e5;stroke-width:0.31981596px;stroke-linecap:butt;stroke-linejoin:miter;stroke-opacity:1" />
      <path
         sodipodi:nodetypes="cc"
         inkscape:connector-curvature="0"
         id="path4730"
         d="M 34.204616,114.7364 H 38.68202"
         style="fill:#b6d2ec;fill-opacity:1;fill-rule:evenodd;stroke:#a6d1e5;stroke-width:0.31981596px;stroke-linecap:butt;stroke-linejoin:miter;stroke-opacity:1" />
      <path
         sodipodi:nodetypes="cc"
         inkscape:connector-curvature="0"
         id="path4732"
         d="M 45.947242,114.65841 H 51.86079"
         style="fill:#b6d2ec;fill-opacity:1;fill-rule:evenodd;stroke:#a6d1e5;stroke-width:0.31981596px;stroke-linecap:butt;stroke-linejoin:miter;stroke-opacity:1" />
      <path
         sodipodi:nodetypes="cc"
         inkscape:connector-curvature="0"
         id="path4734"
         d="m 53.857881,114.65841 9.069697,-0.0781"
         style="fill:#b6d2ec;fill-opacity:1;fill-rule:evenodd;stroke:#a6d1e5;stroke-width:0.31981596px;stroke-linecap:butt;stroke-linejoin:miter;stroke-opacity:1" />
    </g>
    <g
       id="g2992"
       style="fill:#f9f0fa;fill-opacity:1;stroke:#e6d5ec;stroke-opacity:1">
      <path
         sodipodi:nodetypes="cc"
         inkscape:connector-curvature="0"
         id="path4737"
         d="m 41.807753,105.84515 0.04923,4.15637"
         style="fill:#f9f0fa;fill-opacity:1;fill-rule:evenodd;stroke:#e6d5ec;stroke-width:0.31981596px;stroke-linecap:butt;stroke-linejoin:miter;stroke-opacity:1" />
      <path
         sodipodi:nodetypes="cc"
         inkscape:connector-curvature="0"
         id="path4739"
         d="m 45.778281,89.232572 5.248352,-0.04237"
         style="fill:#f9f0fa;fill-opacity:1;fill-rule:evenodd;stroke:#e6d5ec;stroke-width:0.31981596px;stroke-linecap:butt;stroke-linejoin:miter;stroke-opacity:1" />
      <path
         sodipodi:nodetypes="cc"
         inkscape:connector-curvature="0"
         id="path4741"
         d="M 40.262513,87.406178 36.96782,83.483788"
         style="fill:#f9f0fa;fill-opacity:1;fill-rule:evenodd;stroke:#e6d5ec;stroke-width:0.31981596px;stroke-linecap:butt;stroke-linejoin:miter;stroke-opacity:1" />
      <path
         sodipodi:nodetypes="cc"
         inkscape:connector-curvature="0"
         id="path4743"
         d="m 55.374652,75.021597 2.737605,3.993847"
         style="fill:#f9f0fa;fill-opacity:1;fill-rule:evenodd;stroke:#e6d5ec;stroke-width:0.31981596px;stroke-linecap:butt;stroke-linejoin:miter;stroke-opacity:1" />
      <path
         sodipodi:nodetypes="cc"
         inkscape:connector-curvature="0"
         id="path4745"
         d="m 57.858822,82.837116 -2.534381,3.899669"
         style="fill:#f9f0fa;fill-opacity:1;fill-rule:evenodd;stroke:#e6d5ec;stroke-width:0.31981596px;stroke-linecap:butt;stroke-linejoin:miter;stroke-opacity:1" />
      <path
         sodipodi:nodetypes="cc"
         inkscape:connector-curvature="0"
         id="path4749"
         d="m 43.497339,32.999371 4.392926,0.07799"
         style="fill:#f9f0fa;fill-opacity:1;fill-rule:evenodd;stroke:#e6d5ec;stroke-width:0.31981596px;stroke-linecap:butt;stroke-linejoin:miter;stroke-opacity:1" />
      <path
         sodipodi:nodetypes="cc"
         inkscape:connector-curvature="0"
         id="path4753"
         d="m 41.751784,66.459283 0.133277,4.237536"
         style="fill:#f9f0fa;fill-opacity:1;fill-rule:evenodd;stroke:#e6d5ec;stroke-width:0.31981596px;stroke-linecap:butt;stroke-linejoin:miter;stroke-opacity:1" />
    </g>
    <path
       id="switch.light_5"
       d="m 35.878625,27.522977 v -1.469854 h -3.342023 l 2.387152,-2.449794 h -1.432298 l 2.387169,-2.449759 h -1.432298 l 2.38717,-2.449794 2.387152,2.449794 H 37.78835 l 2.387171,2.449759 H 38.74322 l 2.387173,2.449794 H 37.78835 v 1.469854 z"
       inkscape:connector-curvature="0"
       style="display:inline;stroke-width:0.48365381"
       inkscape:label="Julgram" />
    <path
       id="switch.light_3"
       d="m 17.652157,61.8566 a 3.6996846,2.9477449 0 0 0 -3.699697,2.947744 c 0,1.002226 0.628958,1.882343 1.585578,2.417144 v 0.951708 a 0.52852636,0.4211064 0 0 0 0.52854,0.421097 h 3.171159 a 0.52852636,0.4211064 0 0 0 0.52852,-0.421097 v -0.951708 c 0.956641,-0.534801 1.585579,-1.414918 1.585579,-2.417144 A 3.6996846,2.9477449 0 0 0 17.652157,61.8566 m -1.585579,8.001011 a 0.52852636,0.4211064 0 0 0 0.528519,0.42111 h 2.114101 a 0.52852636,0.4211064 0 0 0 0.528539,-0.42111 v -0.421097 h -3.171159 z"
       inkscape:connector-curvature="0"
       style="display:inline;stroke-width:0.47176886"
       inkscape:label="Ljus Sovrum" />
    <g
       transform="matrix(1.2580098,0,0,1.1614252,-62.495694,298.20319)"
       style="display:inline"
       id="switch.light_4"
       inkscape:label="#g4434">
      <path
         inkscape:label="Ljus Kontoret"
         style="stroke-width:0.46927926"
         inkscape:connector-curvature="0"
         d="m 99.327337,-167.98442 a 3.4121279,3.1625215 0 0 0 -3.41214,3.16252 c 0,1.07526 0.580072,2.0195 1.46234,2.59327 v 1.02104 a 0.48744683,0.45178877 0 0 0 0.48746,0.45178 h 2.924683 a 0.48744683,0.45178877 0 0 0 0.48744,-0.45178 v -1.02104 c 0.88228,-0.57377 1.46233,-1.51801 1.46233,-2.59327 a 3.4121279,3.1625215 0 0 0 -3.412113,-3.16252 m -1.46234,8.58398 a 0.48744683,0.45178877 0 0 0 0.48744,0.45178 h 1.949783 a 0.48744683,0.45178877 0 0 0 0.48746,-0.45178 v -0.45178 h -2.924683 z"
         id="switch.light_4-1" />
      <path
         inkscape:label="Ljus Kontoret"
         style="stroke-width:0.26458335"
         inkscape:connector-curvature="0"
         d="m 88.701562,-156.81697 a 1.8520834,1.8520834 0 0 0 -1.85209,1.85208 c 0,0.62971 0.31486,1.18269 0.79375,1.51871 v 0.59796 a 0.26458334,0.26458334 0 0 0 0.26459,0.26458 h 1.5875 a 0.26458334,0.26458334 0 0 0 0.26458,-0.26458 v -0.59796 c 0.4789,-0.33602 0.79375,-0.889 0.79375,-1.51871 a 1.8520834,1.8520834 0 0 0 -1.85208,-1.85208 m -0.79375,5.02708 a 0.26458334,0.26458334 0 0 0 0.26458,0.26458 h 1.05833 a 0.26458334,0.26458334 0 0 0 0.26459,-0.26458 v -0.26458 h -1.5875 z"
         id="switch.light_4-0" />
    </g>
    <g
       transform="matrix(1.2580098,0,0,1.1614252,-62.495694,298.20319)"
       style="display:inline"
       id="switch.light_1"
       inkscape:label="#g1026">
      <path
         inkscape:label="Fönsterljus"
         style="stroke-width:0.3849161"
         inkscape:connector-curvature="0"
         d="m 63.242617,-241.2721 a 2.9953438,2.4237148 0 0 0 -2.995355,2.42371 c 0,0.82407 0.509218,1.54772 1.283719,1.98745 v 0.78251 a 0.42790625,0.34624497 0 0 0 0.427917,0.34625 h 2.567437 a 0.42790625,0.34624497 0 0 0 0.427901,-0.34625 v -0.78251 c 0.774517,-0.43973 1.283719,-1.16338 1.283719,-1.98745 a 2.9953438,2.4237148 0 0 0 -2.995338,-2.42371 m -1.283719,6.57865 a 0.42790625,0.34624497 0 0 0 0.427901,0.34624 h 1.711619 a 0.42790625,0.34624497 0 0 0 0.427917,-0.34624 v -0.34624 h -2.567437 z"
         id="switch.light_1-1" />
      <path
         inkscape:label="Fönsterljus"
         style="stroke-width:0.38710192"
         inkscape:connector-curvature="0"
         d="m 83.402773,-191.96877 a 2.9788796,2.4648688 0 0 0 -2.978891,2.46486 c 0,0.83806 0.506419,1.574 1.276663,2.0212 v 0.7958 a 0.42555423,0.3521241 0 0 0 0.425565,0.35212 h 2.553325 a 0.42555423,0.3521241 0 0 0 0.425549,-0.35212 v -0.7958 c 0.77026,-0.4472 1.276662,-1.18314 1.276662,-2.0212 a 2.9788796,2.4648688 0 0 0 -2.978873,-2.46486 m -1.276663,6.69036 a 0.42555423,0.3521241 0 0 0 0.425549,0.35212 h 1.702211 a 0.42555423,0.3521241 0 0 0 0.425565,-0.35212 v -0.35212 H 82.12611 Z"
         id="switch.light_1-7" />
      <path
         inkscape:label="Fönsterljus Ivan"
         style="display:inline;stroke-width:0.38710192"
         inkscape:connector-curvature="0"
         d="m 67.053348,-166.58702 a 2.9788796,2.4648688 0 0 0 -2.978891,2.46486 c 0,0.83806 0.506419,1.574 1.276663,2.0212 v 0.7958 a 0.42555423,0.3521241 0 0 0 0.425565,0.35212 h 2.553325 a 0.42555423,0.3521241 0 0 0 0.425549,-0.35212 v -0.7958 c 0.77026,-0.4472 1.276662,-1.18314 1.276662,-2.0212 a 2.9788796,2.4648688 0 0 0 -2.978873,-2.46486 m -1.276663,6.69036 a 0.42555423,0.3521241 0 0 0 0.425549,0.35212 h 1.702211 a 0.42555423,0.3521241 0 0 0 0.425565,-0.35212 v -0.35212 h -2.553325 z"
         id="switch.light_6" />
      <path
         inkscape:label="Fönsterljus Mischa"
         style="display:inline;stroke-width:0.38710192"
         inkscape:connector-curvature="0"
         d="m 58.146223,-185.29139 a 2.9788796,2.4648688 0 0 0 -2.978891,2.46486 c 0,0.83806 0.506419,1.574 1.276663,2.0212 v 0.7958 a 0.42555423,0.3521241 0 0 0 0.425565,0.35212 h 2.553325 a 0.42555423,0.3521241 0 0 0 0.425549,-0.35212 v -0.7958 c 0.77026,-0.4472 1.276662,-1.18314 1.276662,-2.0212 a 2.9788796,2.4648688 0 0 0 -2.978873,-2.46486 m -1.276663,6.69036 a 0.42555423,0.3521241 0 0 0 0.425549,0.35212 h 1.702211 a 0.42555423,0.3521241 0 0 0 0.425565,-0.35212 v -0.35212 H 56.86956 Z"
         id="switch.light_2" />
    </g>
    <g
       transform="matrix(1.2580098,0,0,1.1614252,-62.495694,298.20319)"
       style="display:inline"
       id="light.vardagsrum"
       inkscape:label="#g1031">
      <path
         inkscape:label="Stålampa"
         style="stroke-width:0.42997533"
         inkscape:connector-curvature="0"
         d="m 59.813568,-229.36468 h 3.030876 l 1.515453,5.85583 h -6.061781 l 1.515452,-5.85583 m 1.136583,6.34381 h 0.757711 v 2.43994 h 1.894309 v 0.97597 h -4.546329 v -0.97597 h 1.894309 z"
         id="light.stalampa" />
      <path
         inkscape:label="#path5188"
         style="stroke-width:0.36740005"
         inkscape:connector-curvature="0"
         d="m 77.327301,-223.78125 a 2.7025289,2.4473952 0 0 0 -2.702539,2.44739 c 0,0.83213 0.459438,1.56284 1.158226,2.00688 v 0.79015 a 0.38607556,0.34962788 0 0 0 0.386085,0.34963 h 2.316454 a 0.38607556,0.34962788 0 0 0 0.38607,-0.34963 v -0.79015 c 0.698804,-0.44404 1.158228,-1.17475 1.158228,-2.00688 a 2.7025289,2.4473952 0 0 0 -2.702524,-2.44739 m -1.158228,6.64293 a 0.38607556,0.34962788 0 0 0 0.386072,0.34963 h 1.544297 a 0.38607556,0.34962788 0 0 0 0.386085,-0.34963 v -0.34963 h -2.316454 z"
         id="light_bank_tv" />
      <path
         inkscape:label="#path5188"
         style="stroke-width:0.41636261"
         inkscape:connector-curvature="0"
         d="m 61.840772,-216.9428 a 3.1378691,2.7071017 0 0 0 -3.13788,2.70709 c 0,0.92042 0.533447,1.72869 1.344802,2.21983 v 0.874 a 0.448267,0.38672879 0 0 0 0.448278,0.38675 h 2.689602 a 0.448267,0.38672879 0 0 0 0.448261,-0.38675 v -0.874 c 0.81137,-0.49114 1.344799,-1.29941 1.344799,-2.21983 a 3.1378691,2.7071017 0 0 0 -3.137862,-2.70709 m -1.3448,7.34785 a 0.448267,0.38672879 0 0 0 0.448262,0.38672 h 1.793062 a 0.448267,0.38672879 0 0 0 0.448278,-0.38672 v -0.38674 h -2.689602 z"
         id="light.fonster_tv" />
    </g>
    <g
       style="display:inline"
       id="group.ivan"
       transform="matrix(0.17812394,0,0,0.1765863,79.823413,55.196408)"
       inkscape:label="Ivan">
      <path
         id="path923"
         d="M 57.535,28.94 C 58.154,23.642 57.949,16.963 54.64,11.443 53.607,9.713 52.425,9.528 51.644,9.406 51.117,9.324 50.955,9.287 50.724,8.993 47.105,4.354 40.744,2 31.816,2 25.486,2 19.158,3.16 14.97,3.929 c -1.996,0.366 -3.572,0.655 -4.266,0.655 -0.051,0 -0.094,0 -0.039,0.023 L 9.494,4.101 9.275,5.326 C 9.263,5.393 9.07,6.526 9.486,7.725 9.078,7.556 8.716,7.271 8.588,7.147 L 7.537,6.12 6.957,7.451 C 6.881,7.625 5.221,11.507 6.775,14.442 5.404,17.163 5.716,23.526 6.328,28.978 5.326,29.503 4,30.91 4,34.704 c 0,4.886 2.654,6.479 5.184,6.89 1.779,12.717 5.359,14.961 15.111,19.394 2.27,1.03 3.902,1.045 6.215,0.997 0.924,-0.02 2.055,-0.02 2.979,0 0.421,0.007 0.816,0.015 1.199,0.015 1.721,0 3.16,-0.169 5.018,-1.013 C 49.458,56.554 53.036,54.31 54.817,41.593 57.346,41.184 60,39.59 60,34.704 60,30.865 58.582,29.46 57.535,28.94 M 8.762,13.896 C 7.807,12.552 8.086,10.608 8.412,9.375 9.31,9.819 10.648,9.967 11.654,9.323 L 12.652,8.686 11.828,7.848 C 11.441,7.454 11.291,6.929 11.24,6.493 12.166,6.412 13.551,6.159 15.344,5.83 19.457,5.075 25.674,3.935 31.817,3.935 c 8.266,0 14.092,2.094 17.313,6.224 0.725,0.928 1.574,1.061 2.195,1.158 0.641,0.1 1.027,0.16 1.586,1.097 3.219,5.371 3.197,12.14 2.48,17.29 -0.287,1.51 -0.977,2.325 -1.611,2.754 0.059,-0.888 0.1,-2.103 0.047,-3.519 -0.668,-9.887 -2.52,-13.391 -7.076,-13.391 -1.5,0 -3.195,0.392 -5.16,0.846 -2.734,0.631 -5.832,1.348 -9.592,1.348 -3.758,0 -6.855,-0.717 -9.59,-1.348 -1.963,-0.454 -3.66,-0.846 -5.16,-0.846 -4.555,0 -6.406,3.507 -7.076,13.432 -0.053,1.417 -0.01,2.635 0.049,3.521 C 9.497,32.063 8.671,31.195 8.411,29.491 L 8.393,29.366 C 7.666,23.104 7.416,16.705 8.733,15.029 L 9.171,14.472 8.762,13.896 m 45.092,25.861 -0.816,0.059 -0.104,0.785 c -1.625,12.452 -4.469,14.266 -14.078,18.634 -1.535,0.698 -2.65,0.83 -4.168,0.83 -0.369,0 -0.752,-0.008 -1.158,-0.015 -0.475,-0.01 -0.98,-0.021 -1.531,-0.021 -0.551,0 -1.055,0.011 -1.529,0.021 -0.406,0.007 -0.789,0.015 -1.156,0.015 -1.52,0 -2.633,-0.132 -4.168,-0.83 C 15.535,54.867 12.693,53.053 11.068,40.601 L 10.966,39.816 10.15,39.757 C 7.279,39.552 6,37.993 6,34.704 c 0,-2.018 0.395,-3.047 0.768,-3.57 0.963,2.718 3.273,3.643 4.512,3.739 l 1.24,0.096 -0.17,-1.193 c -0.002,-0.02 -0.279,-2.001 -0.182,-4.697 0.723,-10.708 2.816,-11.595 5.08,-11.595 1.264,0 2.855,0.368 4.695,0.793 2.701,0.624 6.063,1.401 10.055,1.401 3.996,0 7.355,-0.777 10.057,-1.401 1.842,-0.425 3.432,-0.793 4.695,-0.793 2.266,0 4.357,0.886 5.08,11.554 0.1,2.732 -0.18,4.718 -0.184,4.736 l -0.172,1.202 1.248,-0.104 c 1.201,-0.1 3.457,-1.046 4.385,-3.828 0.459,0.555 0.893,1.662 0.893,3.66 0,3.289 -1.279,4.848 -4.146,5.053"
         inkscape:connector-curvature="0" />
      <path
         id="path925"
         d="m 40.1,47.999 c -4.051,0 -12.15,0 -16.199,0 -0.9,0 -0.9,0.857 -0.9,0.857 0,3.43 4.5,5.143 9,5.143 4.5,0 9,-1.713 9,-5.143 C 41,48.856 41,47.999 40.1,47.999"
         inkscape:connector-curvature="0" />
      <path
         id="path927"
         d="M 25,31.632 C 25,31.08 24.887,30.558 24.705,30.069 25.734,30.817 26.564,31.823 27,33.13 27,25.132 13,25.132 13,32.132 13.652,30.5 15.162,29.412 16.963,28.88 16.367,29.643 16,30.59 16,31.632 c 0,2.484 2.014,4.498 4.5,4.498 2.484,0 4.5,-2.014 4.5,-4.498"
         inkscape:connector-curvature="0" />
      <path
         id="path929"
         d="m 37,33.13 c 0.436,-1.307 1.264,-2.313 2.295,-3.061 C 39.113,30.558 39,31.08 39,31.632 c 0,2.484 2.016,4.498 4.5,4.498 2.486,0 4.5,-2.014 4.5,-4.498 0,-1.042 -0.369,-1.989 -0.963,-2.752 1.801,0.532 3.311,1.62 3.963,3.252 0,-7 -14,-7 -14,0.998"
         inkscape:connector-curvature="0" />
      <path
         id="path931"
         d="m 32,44.999 c 4.18,-0.002 6.27,-3 4.18,-3 -2.09,0 -6.27,0 -8.359,0 -2.089,0 -0.001,3 4.179,3"
         inkscape:connector-curvature="0" />
    </g>
    <g
       style="display:inline"
       id="group.johanna"
       transform="matrix(0.17812394,0,0,0.1765863,79.881518,17.898251)"
       inkscape:label="Johanna">
      <path
         id="path1102"
         d="M 44.84,6.532 C 44.84,6.532 43.699,2 32,2 13.889,2 4,13.45 4,28.529 V 62 H 32 C 23.912,62 10.367,50.338 10.367,40.668 10.367,40.668 6,39.561 6,33.152 6,28.078 9.293,27.207 9.293,27.207 21.096,27.207 43,12 43,12 c 0,0 4.59,13.426 11.604,15.207 0,0 3.396,0.621 3.396,5.945 0,6.408 -4.531,7.516 -4.531,7.516 C 53.408,50.338 40.092,62 32,62 H 60 V 28.529 C 60,6.115 44.84,6.532 44.84,6.532 Z"
         inkscape:connector-curvature="0" />
      <path
         id="path1104"
         d="m 32,47 c 4.18,-0.002 6.27,-3 4.18,-3 -2.09,0 -6.27,0 -8.361,0 -2.09,0 -10e-4,3 4.181,3"
         inkscape:connector-curvature="0" />
      <path
         id="path1106"
         d="m 48.5,33.5 c 0,-1.131 -0.432,-2.152 -1.121,-2.941 0.768,0.111 1.525,0.24 2.264,0.334 0.629,0.184 1.252,0.381 1.852,0.611 0.105,0.357 0.102,0.875 -0.01,1.375 -0.129,0.615 -0.342,1.246 -0.596,1.861 -0.266,0.611 -0.549,1.227 -0.889,1.811 -0.168,0.295 -0.34,0.586 -0.535,0.863 -0.199,0.27 -0.383,0.574 -0.686,0.738 0.678,-0.229 1.148,-0.814 1.621,-1.316 0.455,-0.535 0.879,-1.102 1.24,-1.713 0.361,-0.611 0.697,-1.248 0.916,-1.963 0.18,-0.645 0.379,-1.383 0.105,-2.221 0.861,-0.146 1.652,-0.479 2.338,-1.123 -4.5,1.955 -15.75,-7.181 -18,6.521 0.797,-2.023 1.738,-3.393 2.768,-4.313 -0.162,0.464 -0.267,0.956 -0.267,1.476 0,2.484 2.018,4.5 4.5,4.5 2.486,0 4.5,-2.016 4.5,-4.5"
         inkscape:connector-curvature="0" />
      <path
         id="path1108"
         d="m 24.5,33.5 c 0,-0.52 -0.105,-1.012 -0.27,-1.475 1.031,0.92 1.971,2.289 2.77,4.313 -2.25,-13.703 -13.5,-4.566 -18,-6.521 0.686,0.645 1.477,0.977 2.338,1.123 -0.275,0.838 -0.074,1.576 0.105,2.221 0.219,0.715 0.553,1.352 0.914,1.963 0.363,0.611 0.785,1.178 1.24,1.713 0.475,0.502 0.945,1.088 1.623,1.316 -0.305,-0.164 -0.486,-0.469 -0.686,-0.738 -0.195,-0.277 -0.369,-0.568 -0.535,-0.863 -0.34,-0.584 -0.625,-1.199 -0.889,-1.811 -0.254,-0.615 -0.467,-1.246 -0.598,-1.861 -0.109,-0.5 -0.115,-1.018 -0.008,-1.375 0.594,-0.229 1.211,-0.428 1.834,-0.607 0.742,-0.096 1.508,-0.225 2.279,-0.338 -0.685,0.788 -1.117,1.809 -1.117,2.94 0,2.484 2.012,4.5 4.5,4.5 2.482,0 4.5,-2.016 4.5,-4.5"
         inkscape:connector-curvature="0" />
      <path
         id="path1110"
         d="M 35.945,50.115 C 33,49 32,50.771 32,50.771 c 0,0 -1,-1.771 -3.945,-0.656 -2.301,0.871 -6.068,0.355 -6.055,0.359 6,8.525 14,8.525 20,0 0.014,-0.003 -3.754,0.512 -6.055,-0.359"
         inkscape:connector-curvature="0" />
    </g>
    <g
       style="display:inline"
       id="group.erik"
       transform="matrix(0.17812394,0,0,0.1765863,79.895709,37.342466)"
       inkscape:label="Erik">
      <path
         id="path1171"
         d="M 57.881,28.421 C 57.107,6.895 51.98,2 32,2 12.02,2 6.893,6.896 6.119,28.421 4.668,28.788 3,30.148 3,34.464 c 0,4.961 2.764,6.564 5.385,6.968 1.434,8.971 6.619,14.679 17.697,19.577 C 27.504,61.639 29.662,62 32,62 34.34,62 36.496,61.639 37.918,61.009 48.996,56.11 54.18,50.401 55.617,41.432 58.236,41.028 61,39.425 61,34.464 61,30.146 59.332,28.787 57.881,28.421 m -3.213,11.139 -0.814,0.057 -0.107,0.795 c -1.354,10.095 -7.635,14.817 -16.648,18.804 -1.156,0.512 -3.061,0.817 -5.098,0.817 -2.035,0 -3.941,-0.306 -5.098,-0.817 C 17.889,55.23 11.608,50.507 10.255,40.412 L 10.15,39.617 9.334,39.56 C 6.336,39.35 5,37.778 5,34.464 c 0,-2.786 0.709,-4.197 2.111,-4.197 0.068,0 0.141,0.003 0.215,0.009 0.191,1.018 0.418,1.76 0.689,2.256 0.686,1.25 1.977,1.931 2.121,2.004 l 1.725,0.874 -0.277,-1.89 c -0.002,-0.021 -0.291,-2.031 -0.186,-4.765 0.789,-11.259 1.5,-12 6.08,-12 1.205,0 2.691,0.096 4.414,0.206 2.654,0.17 5.959,0.382 10.109,0.382 4.15,0 7.455,-0.212 10.109,-0.383 1.723,-0.11 3.209,-0.206 4.412,-0.206 4.582,0 5.293,0.743 6.078,11.994 0.104,2.75 -0.184,4.751 -0.188,4.771 l -0.279,1.891 1.727,-0.875 c 0.146,-0.073 1.436,-0.754 2.121,-2.004 0.273,-0.497 0.5,-1.238 0.693,-2.256 1.547,-0.116 2.322,1.266 2.324,4.188 0.002,3.316 -1.334,4.888 -4.33,5.097"
         inkscape:connector-curvature="0" />
      <path
         id="path1173"
         d="m 40.1,47.499 c -4.051,0 -12.15,0 -16.199,0 -0.9,0 -0.9,0.857 -0.9,0.857 0,3.43 4.5,5.143 9,5.143 4.5,0 9,-1.713 9,-5.143 C 41,48.356 41,47.499 40.1,47.499"
         inkscape:connector-curvature="0" />
      <path
         id="path1175"
         d="M 25,31.132 C 25,30.58 24.887,30.059 24.705,29.57 25.734,30.317 26.564,31.323 27,32.63 27,24.632 13,24.632 13,31.632 13.652,30 15.162,28.912 16.963,28.38 16.367,29.143 16,30.09 16,31.132 c 0,2.484 2.014,4.498 4.5,4.498 2.484,0 4.5,-2.014 4.5,-4.498"
         inkscape:connector-curvature="0" />
      <path
         id="path1177"
         d="m 37,32.63 c 0.436,-1.308 1.264,-2.313 2.295,-3.06 C 39.113,30.059 39,30.58 39,31.132 c 0,2.484 2.016,4.498 4.5,4.498 2.486,0 4.5,-2.014 4.5,-4.498 0,-1.042 -0.369,-1.989 -0.963,-2.752 1.801,0.532 3.311,1.62 3.963,3.252 0,-7 -14,-7 -14,0.998"
         inkscape:connector-curvature="0" />
      <path
         id="path1179"
         d="m 32,44.499 c 4.18,-0.002 6.27,-3 4.18,-3 -2.09,0 -6.27,0 -8.359,0 -2.089,0 -0.001,3 4.179,3"
         inkscape:connector-curvature="0" />
    </g>
    <path
       id="light.sovrum_ceiling"
       d="m 31.276638,74.300922 0.907425,0.90274 0.710815,-0.712162 -0.902384,-0.897722 m 0.675529,-2.126489 H 34.1804 v -1.003043 h -1.512377 m -2.520628,-2.101412 v -2.412328 h -3.024752 v 2.412328 c -0.902385,0.521597 -1.512377,1.489538 -1.512377,2.602928 a 3.0247529,3.0091598 0 0 0 3.024753,3.009158 3.0247529,3.0091598 0 0 0 3.024753,-3.009158 c 0,-1.11339 -0.609993,-2.081331 -1.512377,-2.602928 m -5.54538,2.101412 h -1.512377 v 1.003043 h 1.512377 m 3.52888,4.990202 c 0.161326,0 1.008249,0 1.008249,0 v -1.479506 h -1.008249 m -3.755736,-0.486485 0.710816,0.712162 0.907425,-0.90274 -0.715856,-0.707144 z"
       inkscape:connector-curvature="0"
       style="display:inline;stroke-width:0.50282449"
       inkscape:label="#path1002" />
    <g
       transform="matrix(1.2580098,0,0,1.1614252,-62.495694,298.20319)"
       style="display:inline"
       id="light.vardagsrum_tak"
       inkscape:label="#g1035">
      <path
         inkscape:label="#path1002"
         style="stroke-width:0.415986"
         inkscape:connector-curvature="0"
         d="m 73.854173,-206.70263 0.721318,0.77727 0.565032,-0.61318 -0.717311,-0.77295 m 0.536982,-1.83093 h 1.202198 v -0.86363 h -1.202198 m -2.003663,-1.80934 v -2.07704 h -2.404395 v 2.07704 c -0.717311,0.4491 -1.202198,1.28251 -1.202198,2.24115 a 2.4043953,2.59092 0 0 0 2.404396,2.59092 2.4043953,2.59092 0 0 0 2.404395,-2.59092 c 0,-0.95864 -0.484887,-1.79205 -1.202198,-2.24115 m -4.408058,1.80934 h -1.202198 v 0.86363 h 1.202198 m 2.805129,4.29662 c 0.128239,0 0.801464,0 0.801464,0 v -1.27387 h -0.801464 m -2.985458,-0.41887 0.565032,0.61318 0.721318,-0.77727 -0.569039,-0.60886 z"
         id="light.vardagsrum_x" />
      <path
         inkscape:label="#path1002"
         style="display:inline;stroke-width:0.41598603"
         inkscape:connector-curvature="0"
         d="m 72.715004,-227.74997 0.721318,0.77727 0.565032,-0.61318 -0.717311,-0.77295 m 0.536982,-1.83093 h 1.202198 v -0.86363 h -1.202198 m -2.003663,-1.80934 v -2.07704 h -2.404395 v 2.07704 c -0.717311,0.4491 -1.202198,1.28251 -1.202198,2.24115 a 2.4043953,2.59092 0 0 0 2.404396,2.59092 2.4043953,2.59092 0 0 0 2.404395,-2.59092 c 0,-0.95864 -0.484887,-1.79205 -1.202198,-2.24115 m -4.408058,1.80934 h -1.202198 v 0.86363 h 1.202198 m 2.805129,4.29662 c 0.128239,0 0.801464,0 0.801464,0 v -1.27387 h -0.801464 m -2.985458,-0.41887 0.565032,0.61318 0.721318,-0.77727 -0.569039,-0.60886 z"
         id="light.matbord" />
    </g>
    <path
       id="switch.my_flux"
       d="M 66.648577,26.23492 66.206602,25.043833 H 64.186111 L 63.744136,26.23492 H 62.54447 l 2.020479,-5.359953 h 1.262804 l 2.020464,5.359953 h -1.19964 m 3.598954,-4.353462 v -2.793146 h -2.961242 l -2.089946,-1.971275 -2.089925,1.971275 h -2.961246 v 2.793146 l -2.089925,1.971264 2.089925,1.971275 v 2.793135 h 2.961246 l 2.089925,1.971276 2.089946,-1.971276 h 2.961242 v -2.793135 l 2.089933,-1.971275 -2.089933,-1.971264 m -5.777297,2.358379 h 1.452235 l -0.726126,-2.17377 z"
       inkscape:connector-curvature="0"
       style="display:inline;stroke-width:0.61321253"
       inkscape:label="#path1058">
      <title
         id="title1069">Ljus enligt solen</title>
    </path>
  </g>
  <g
     inkscape:groupmode="layer"
     id="layer4"
     inkscape:label="Menu"
     style="display:inline">
    <g
       transform="translate(-0.06065794,0.12836932)"
       style="display:inline"
       id="show_page0"
       inkscape:label="#g2162">
      <g
         id="g3000"
         transform="matrix(1.0406091,0,0,1.0821918,72.679387,-3.2653933)">
        <rect
           style="fill:#0a5761;fill-opacity:1;stroke:none;stroke-width:0.26458335;stroke-opacity:1"
           id="rect1879"
           width="31.75"
           height="13.796131"
           x="-71.4375"
           y="2.7571256" />
        <rect
           style="fill:#0a5761;fill-opacity:1;fill-rule:evenodd;stroke:none;stroke-width:0.26458335;stroke-opacity:1"
           id="rect1881"
           width="37.230656"
           height="13.607142"
           x="-71.4375"
           y="2.7571256" />
        <path
           id="path1883"
           d="m -64.596131,6.2387077 v 2.372851 h -0.548066 v -2.372851 h -2.192262 v 3.7965613 h 2.192262 V 9.5606977 h 0.548066 v 2.3728513 h -0.548066 v -1.42371 h -2.192262 v 2.372851 h 3.83646 v -0.949141 h 0.548064 v 0.949141 h 3.288394 v -0.949141 h 1.09613 v 1.89828 H -68.43259 V 5.2895667 h 9.865179 v 5.6948413 h -1.09613 V 8.6115587 h -3.288394 v 2.3728493 h -0.548064 V 8.1369867 h 3.836458 v -1.898279 z"
           inkscape:connector-curvature="0"
           style="display:inline;fill:#00000f;fill-opacity:0.94117647;stroke-width:0.50999558" />
      </g>
    </g>
    <g
       transform="translate(0.01096706,0.14334132)"
       style="display:inline"
       id="show_page2"
       inkscape:label="#g1934-3">
      <rect
         y="-0.28165513"
         x="37.159031"
         height="13.773305"
         width="30.498713"
         id="rect1914-7"
         style="fill:#acd8bf;fill-opacity:1;fill-rule:evenodd;stroke:none;stroke-width:0.26458335;stroke-opacity:1" />
      <path
         style="display:inline;stroke-width:0.42458078"
         inkscape:connector-curvature="0"
         d="m 44.907542,9.3715563 a 3.04271,2.9030612 0 0 1 -3.042704,-2.903077 3.04271,2.9030612 0 0 1 3.042704,-2.9030516 3.04271,2.9030612 0 0 1 3.042705,2.9030516 3.04271,2.9030612 0 0 1 -3.042705,2.903077 m 0,-6.6355786 a 3.9120556,3.7325072 0 0 0 -3.912055,3.7325016 3.9120556,3.7325072 0 0 0 3.912055,3.7325087 3.9120556,3.7325072 0 0 0 3.912057,-3.7325087 3.9120556,3.7325072 0 0 0 -3.912057,-3.7325016 m 0.217335,1.6589008 h -0.652001 v 2.488339 L 46.53757,8.0651705 46.863562,7.5550609 45.124877,6.5721673 V 4.3948785 M 43.116696,2.4830053 42.56031,1.8484816 40.56082,3.4451529 41.121544,4.0796766 43.116696,2.4830053 m 6.13757,0.9663057 -1.99949,-1.6008294 -0.560724,0.6345237 1.99949,1.6008293 z"
         id="path5384-5-3" />
      <path
         inkscape:label="Ljus Sovrum"
         style="display:inline;stroke-width:0.29993773"
         inkscape:connector-curvature="0"
         d="m 54.23959,3.1826285 a 2.0135662,2.1892345 0 0 0 -2.013573,2.189232 c 0,0.7443393 0.342312,1.3979863 0.862957,1.7951723 v 0.706813 a 0.28765231,0.3127478 0 0 0 0.287659,0.312745 h 1.725914 a 0.28765231,0.3127478 0 0 0 0.287648,-0.312745 v -0.706813 c 0.520656,-0.397186 0.862957,-1.050833 0.862957,-1.7951723 A 2.0135662,2.1892345 0 0 0 54.23959,3.1826285 m -0.862957,5.9422053 a 0.28765231,0.3127478 0 0 0 0.28765,0.312742 h 1.150605 a 0.28765231,0.3127478 0 0 0 0.287659,-0.312742 v -0.312745 h -1.725914 z"
         id="switch.light_3-7-6" />
    </g>
    <g
       transform="translate(-11.571834,245.66457)"
       id="show_page1"
       style="display:inline;fill:#bbd5df;fill-opacity:1;stroke:#bbd5df;stroke-opacity:1"
       inkscape:label="#g2070-9">
      <rect
         y="-245.80289"
         x="79.240547"
         height="13.821669"
         width="28.414934"
         id="rect2066-7"
         style="fill:#bbd5df;fill-opacity:1;fill-rule:evenodd;stroke:#bbd5df;stroke-width:0.26458335;stroke-opacity:1" />
      <path
         inkscape:label=""
         style="display:inline;fill:#000000;fill-opacity:1;stroke:#000000;stroke-width:0.49705938;stroke-opacity:1"
         inkscape:connector-curvature="0"
         d="m 91.06467,-235.14088 -0.6939,-0.70787 c 0.713582,-0.72293 1.151586,-1.73204 1.151586,-2.84155 0,-1.11452 -0.438004,-2.11861 -1.151586,-2.84155 l 0.6939,-0.70787 c 0.890769,0.9087 1.44194,2.16379 1.44194,3.54942 0,1.38563 -0.551171,2.64073 -1.44194,3.54942 m -1.39272,-1.42077 -0.6939,-0.70787 c 0.354335,-0.36148 0.575797,-0.86352 0.575797,-1.42078 0,-0.55726 -0.221462,-1.05931 -0.575797,-1.42077 l 0.6939,-0.70788 c 0.536426,0.54722 0.866159,1.30029 0.866159,2.12865 0,0.82837 -0.329733,1.58143 -0.866159,2.12865 m -6.515781,-6.647 h 3.937026 a 0.98425773,1.0040787 0 0 1 0.984262,1.00408 v 7.02855 a 0.98425773,1.0040787 0 0 1 -0.984262,1.00408 h -3.937026 a 0.98425773,1.0040787 0 0 1 -0.984262,-1.00408 v -7.02855 a 0.98425773,1.0040787 0 0 1 0.984262,-1.00408 m 1.968509,1.00408 a 0.98425773,1.0040787 0 0 0 -0.984262,1.00408 0.98425773,1.0040787 0 0 0 0.984262,1.00407 0.98425773,1.0040787 0 0 0 0.984271,-1.00407 0.98425773,1.0040787 0 0 0 -0.984271,-1.00408 m 0,3.01223 a 1.9685154,2.0081575 0 0 0 -1.968509,2.00816 1.9685154,2.0081575 0 0 0 1.968509,2.00816 1.9685154,2.0081575 0 0 0 1.968517,-2.00816 1.9685154,2.0081575 0 0 0 -1.968517,-2.00816 m 0,1.00409 a 0.98425773,1.0040787 0 0 1 0.984271,1.00407 0.98425773,1.0040787 0 0 1 -0.984271,1.00407 0.98425773,1.0040787 0 0 1 -0.984262,-1.00407 0.98425773,1.0040787 0 0 1 0.984262,-1.00407 z"
         id="NAD-4-4" />
    </g>
  </g>
</svg>
